<?xml version="1.0" standalone="no"?>
<!DOCTYPE svg PUBLIC "-//W3C//DTD SVG 20010904//EN"
 "http://www.w3.org/TR/2001/REC-SVG-20010904/DTD/svg10.dtd">
<svg version="1.0" xmlns="http://www.w3.org/2000/svg"
 width="512.000000pt" height="512.000000pt" viewBox="0 0 512.000000 512.000000"
 preserveAspectRatio="xMidYMid meet">
<metadata>
Created by potrace 1.14, written by Peter Selinger 2001-2017
</metadata>
<g transform="translate(0.000000,512.000000) scale(0.100000,-0.100000)"
fill="#000000" stroke="none">
<path d="M2033 4434 l-513 -514 -160 0 -160 0 0 -160 0 -160 -520 -520 -520
-520 520 -520 520 -520 0 -160 0 -160 160 0 160 0 520 -520 520 -520 520 520
520 520 160 0 160 0 0 160 0 160 520 520 520 520 -520 520 -520 520 0 160 0
160 -160 0 -160 0 -515 515 c-283 283 -520 515 -527 514 -7 0 -244 -232 -525
-515z"/>
</g>
</svg>
